<svg id="visual" viewBox="0 0 450 900" width="450" height="900" xmlns="http://www.w3.org/2000/svg" xmlns:xlink="http://www.w3.org/1999/xlink" version="1.1"><rect x="0" y="0" width="450" height="900" fill="transparent"></rect><path d="M0 456L15 457.7C30 459.3 60 462.7 90 462.2C120 461.7 150 457.3 180 451.3C210 445.3 240 437.7 270 432.7C300 427.7 330 425.3 360 430.2C390 435 420 447 435 453L450 459L450 0L435 0C420 0 390 0 360 0C330 0 300 0 270 0C240 0 210 0 180 0C150 0 120 0 90 0C60 0 30 0 15 0L0 0Z" fill="#fab469"></path><path d="M0 374L15 376.2C30 378.3 60 382.7 90 386.2C120 389.7 150 392.3 180 386.7C210 381 240 367 270 364.5C300 362 330 371 360 375.2C390 379.3 420 378.7 435 378.3L450 378L450 0L435 0C420 0 390 0 360 0C330 0 300 0 270 0C240 0 210 0 180 0C150 0 120 0 90 0C60 0 30 0 15 0L0 0Z" fill="#ef9d5e"></path><path d="M0 279L15 285.5C30 292 60 305 90 308.2C120 311.3 150 304.7 180 300.3C210 296 240 294 270 295C300 296 330 300 360 297.5C390 295 420 286 435 281.5L450 277L450 0L435 0C420 0 390 0 360 0C330 0 300 0 270 0C240 0 210 0 180 0C150 0 120 0 90 0C60 0 30 0 15 0L0 0Z" fill="#e28555"></path><path d="M0 240L15 240.8C30 241.7 60 243.3 90 236.3C120 229.3 150 213.7 180 206C210 198.3 240 198.7 270 203.5C300 208.3 330 217.7 360 220.5C390 223.3 420 219.7 435 217.8L450 216L450 0L435 0C420 0 390 0 360 0C330 0 300 0 270 0C240 0 210 0 180 0C150 0 120 0 90 0C60 0 30 0 15 0L0 0Z" fill="#d46f4e"></path><path d="M0 169L15 163.5C30 158 60 147 90 142.8C120 138.7 150 141.3 180 143.7C210 146 240 148 270 150.2C300 152.3 330 154.7 360 156.2C390 157.7 420 158.3 435 158.7L450 159L450 0L435 0C420 0 390 0 360 0C330 0 300 0 270 0C240 0 210 0 180 0C150 0 120 0 90 0C60 0 30 0 15 0L0 0Z" fill="#c45948"></path><path d="M0 99L15 94.8C30 90.7 60 82.3 90 76.5C120 70.7 150 67.3 180 70.7C210 74 240 84 270 84.8C300 85.7 330 77.3 360 76C390 74.7 420 80.3 435 83.2L450 86L450 0L435 0C420 0 390 0 360 0C330 0 300 0 270 0C240 0 210 0 180 0C150 0 120 0 90 0C60 0 30 0 15 0L0 0Z" fill="#b34343"></path></svg>